<svg width="25" height="24" viewBox="0 0 25 24" fill="none" xmlns="http://www.w3.org/2000/svg">
<g id="academic-cap">
<path id="Vector" d="M12.5 14L21.5 9L12.5 4L3.5 9L12.5 14Z" stroke="#212121"/>
<path id="Vector_2" d="M12.5001 14.0001L18.6601 10.5781C19.4706 12.6362 19.7006 14.8773 19.3251 17.0571C16.7886 17.3033 14.3973 18.3537 12.5001 20.0551C10.6031 18.3539 8.21216 17.3035 5.67608 17.0571C5.30028 14.8773 5.53031 12.6362 6.34108 10.5781L12.5001 14.0001Z" stroke="#212121"/>
<path id="Vector_3" d="M12.5 14L21.5 9L12.5 4L3.5 9L12.5 14ZM12.5 14L18.66 10.578C19.4705 12.6361 19.7005 14.8772 19.325 17.057C16.7886 17.3032 14.3972 18.3536 12.5 20.055C10.6031 18.3538 8.21208 17.3034 5.676 17.057C5.3002 14.8772 5.53023 12.636 6.341 10.578L12.5 14ZM8.5 20V12.5L12.5 10.278" stroke="white" stroke-width="2" stroke-linecap="round" stroke-linejoin="round"/>
</g>
</svg>
