<svg width="16" height="16" viewBox="0 0 16 16" fill="none" xmlns="http://www.w3.org/2000/svg">
<g id="camera">
<path id="Vector" d="M2.39052 5.0572C2.14048 5.30724 2 5.64638 2 6V12C2 12.3536 2.14048 12.6928 2.39052 12.9428C2.64057 13.1929 2.97971 13.3333 3.33333 13.3333H12.6667C13.0203 13.3333 13.3594 13.1929 13.6095 12.9428C13.8595 12.6928 14 12.3536 14 12V6C14 5.64638 13.8595 5.30724 13.6095 5.0572C13.3594 4.80715 13.0203 4.66667 12.6667 4.66667H12.0467C11.8272 4.6667 11.6111 4.61257 11.4176 4.50906C11.2241 4.40556 11.0591 4.25589 10.9373 4.07334L10.396 3.26C10.2742 3.07745 10.1092 2.92778 9.91571 2.82428C9.7222 2.72078 9.50612 2.66664 9.28667 2.66667H6.71333C6.49388 2.66664 6.27781 2.72078 6.08429 2.82428C5.89077 2.92778 5.7258 3.07745 5.604 3.26L5.06267 4.07334C4.94087 4.25589 4.77589 4.40556 4.58238 4.50906C4.38886 4.61257 4.17279 4.6667 3.95333 4.66667H3.33333C2.97971 4.66667 2.64057 4.80715 2.39052 5.0572Z" stroke="white" stroke-width="1.5" stroke-linecap="round" stroke-linejoin="round"/>
<path id="Vector_2" d="M9.41421 10.0809C9.78929 9.70581 10 9.1971 10 8.66667C10 8.13624 9.78929 7.62753 9.41421 7.25246C9.03914 6.87739 8.53043 6.66667 8 6.66667C7.46957 6.66667 6.96086 6.87739 6.58579 7.25246C6.21071 7.62753 6 8.13624 6 8.66667C6 9.1971 6.21071 9.70581 6.58579 10.0809C6.96086 10.456 7.46957 10.6667 8 10.6667C8.53043 10.6667 9.03914 10.456 9.41421 10.0809Z" stroke="white" stroke-width="1.5" stroke-linecap="round" stroke-linejoin="round"/>
</g>
</svg>
