<svg width="21" height="21" viewBox="0 0 21 21" fill="none" xmlns="http://www.w3.org/2000/svg">
<g id="chevron-down">
<path id="Vector" fill-rule="evenodd" clip-rule="evenodd" d="M6.14142 7.79308C6.32895 7.60561 6.58326 7.50029 6.84842 7.50029C7.11358 7.50029 7.36789 7.60561 7.55542 7.79308L10.8484 11.0861L14.1414 7.79308C14.2337 7.69757 14.344 7.62139 14.466 7.56898C14.588 7.51657 14.7192 7.48898 14.852 7.48783C14.9848 7.48668 15.1165 7.51198 15.2394 7.56226C15.3623 7.61254 15.4739 7.68679 15.5678 7.78069C15.6617 7.87458 15.736 7.98623 15.7862 8.10913C15.8365 8.23202 15.8618 8.3637 15.8607 8.49648C15.8595 8.62926 15.8319 8.76048 15.7795 8.88249C15.7271 9.00449 15.6509 9.11483 15.5554 9.20708L11.5554 13.2071C11.3679 13.3946 11.1136 13.4999 10.8484 13.4999C10.5833 13.4999 10.3289 13.3946 10.1414 13.2071L6.14142 9.20708C5.95395 9.01955 5.84863 8.76525 5.84863 8.50008C5.84863 8.23492 5.95395 7.98061 6.14142 7.79308Z" fill="#90A4AE"/>
</g>
</svg>
