<svg width="21" height="20" viewBox="0 0 21 20" fill="none" xmlns="http://www.w3.org/2000/svg">
<g id="plus">
<path id="Vector" fill-rule="evenodd" clip-rule="evenodd" d="M10.5 5.00439C10.7586 5.00439 11.0066 5.10975 11.1894 5.29729C11.3723 5.48482 11.475 5.73918 11.475 6.00439V9.00439H14.4C14.6586 9.00439 14.9066 9.10975 15.0894 9.29729C15.2723 9.48482 15.375 9.73918 15.375 10.0044C15.375 10.2696 15.2723 10.524 15.0894 10.7115C14.9066 10.899 14.6586 11.0044 14.4 11.0044H11.475V14.0044C11.475 14.2696 11.3723 14.524 11.1894 14.7115C11.0066 14.899 10.7586 15.0044 10.5 15.0044C10.2414 15.0044 9.99342 14.899 9.81057 14.7115C9.62772 14.524 9.525 14.2696 9.525 14.0044V11.0044H6.6C6.34141 11.0044 6.09342 10.899 5.91057 10.7115C5.72772 10.524 5.625 10.2696 5.625 10.0044C5.625 9.73918 5.72772 9.48482 5.91057 9.29729C6.09342 9.10975 6.34141 9.00439 6.6 9.00439H9.525V6.00439C9.525 5.73918 9.62772 5.48482 9.81057 5.29729C9.99342 5.10975 10.2414 5.00439 10.5 5.00439Z" fill="#90A4AE"/>
</g>
</svg>
