<svg width="48" height="48" viewBox="0 0 48 48" fill="none" xmlns="http://www.w3.org/2000/svg">
<g id="speakerphone">
<path id="Vector" fill-rule="evenodd" clip-rule="evenodd" d="M43.1998 7.19999C43.1996 6.79105 43.0949 6.38895 42.8956 6.03184C42.6964 5.67473 42.4092 5.37446 42.0613 5.15952C41.7134 4.94458 41.3163 4.8221 40.9078 4.8037C40.4993 4.7853 40.0928 4.87159 39.727 5.05439L21.031 14.4H11.9998C10.0902 14.4 8.2589 15.1586 6.90864 16.5088C5.55837 17.8591 4.7998 19.6904 4.7998 21.6C4.7998 23.5095 5.55837 25.3409 6.90864 26.6912C8.2589 28.0414 10.0902 28.8 11.9998 28.8H12.6718L16.9222 41.5584C17.0814 42.0365 17.3871 42.4523 17.7959 42.747C18.2047 43.0416 18.6959 43.2001 19.1998 43.2H21.5998C22.2363 43.2 22.8468 42.9471 23.2969 42.497C23.7469 42.047 23.9998 41.4365 23.9998 40.8V30.2832L39.727 38.1456C40.0928 38.3284 40.4993 38.4147 40.9078 38.3963C41.3163 38.3779 41.7134 38.2554 42.0613 38.0405C42.4092 37.8255 42.6964 37.5252 42.8956 37.1681C43.0949 36.811 43.1996 36.4089 43.1998 36V7.19999Z" fill="#212121"/>
</g>
</svg>
