<svg width="20" height="20" viewBox="0 0 20 20" fill="none" xmlns="http://www.w3.org/2000/svg">
<path id="Vector" d="M1 16.5963V7.6663C0.999951 7.33711 1.08116 7.01301 1.23641 6.72273C1.39166 6.43246 1.61617 6.185 1.89 6.0023L8.89 1.3363C9.21866 1.11702 9.6049 1 10 1C10.3951 1 10.7813 1.11702 11.11 1.3363L18.11 6.0023C18.3838 6.185 18.6083 6.43246 18.7636 6.72273C18.9188 7.01301 19 7.33711 19 7.6663V16.5963M1 16.5963C1 17.1267 1.21071 17.6354 1.58579 18.0105C1.96086 18.3856 2.46957 18.5963 3 18.5963H17C17.5304 18.5963 18.0391 18.3856 18.4142 18.0105C18.7893 17.6354 19 17.1267 19 16.5963M1 16.5963L7.75 12.0963M19 16.5963L12.25 12.0963M7.75 12.0963L1 7.5963M7.75 12.0963L8.89 12.8563C9.21866 13.0756 9.6049 13.1926 10 13.1926C10.3951 13.1926 10.7813 13.0756 11.11 12.8563L12.25 12.0963M12.25 12.0963L19 7.5963" stroke="white" stroke-width="2" stroke-linecap="round" stroke-linejoin="round"/>
</svg>
